<svg version="1.1" xmlns="http://www.w3.org/2000/svg" viewBox="0 0 838.6362549915243 617.1526578026293" width="838.6362549915243" height="617.1526578026293">
  <!-- svg-source:excalidraw -->
  
  <defs>
    <style class="style-fonts">
      @font-face {
        font-family: "Virgil";
        src: url("https://excalidraw.com/Virgil.woff2");
      }
      @font-face {
        font-family: "Cascadia";
        src: url("https://excalidraw.com/Cascadia.woff2");
      }
    </style>
    
  </defs>
  <rect x="0" y="0" width="838.6362549915243" height="617.1526578026293" fill="#ffffff"/><g stroke-linecap="round" transform="translate(552.134521484375 11.033203125) rotate(0 138.25086675357466 297.2064615052864)"><path d="M1.38 1.66 L277.87 -0.22 L277.07 593.11 L-1.07 595.99" stroke="none" stroke-width="0" fill="#96f2d7"/><path d="M-1.29 -0.01 C101.59 1.03, 202.2 1.31, 275.05 -0.51 M0.01 -0.48 C65.72 -1.77, 129.23 -0.98, 277.24 0.68 M276.33 0.11 C273.63 173.95, 273.65 347.29, 277.26 593.96 M276.25 -0.27 C276.12 224.69, 276.3 449.85, 276.86 594.74 M276.66 595.37 C187.17 593.48, 94.29 593.34, 0.36 593.73 M277.21 593.93 C183.62 596.04, 90.3 596.92, 0.74 594.16 M-0.1 593.87 C0.38 471.9, -0.27 350.03, -0.42 -0.29 M0.38 594.5 C-1.45 410.85, -1.24 226.7, -0.12 0.23" stroke="#1e1e1e" stroke-width="1" fill="none"/></g><g stroke-linecap="round" transform="translate(10 10) rotate(0 262.4276123046875 125.25198364257812)"><path d="M0.1 -1.01 L523.51 0.13 L524.42 252.2 L-1.96 251.25" stroke="none" stroke-width="0" fill="#fab005"/><path d="M0.34 0.41 C201.62 1.03, 402.54 0.61, 525.55 0.59 M-0.08 -0.11 C178.66 0.07, 358.06 0.04, 525.17 -0.07 M523.25 -1.04 C522.57 78.79, 524.3 160.51, 523.66 249.1 M524.4 0.41 C523.95 95.82, 524.19 193.7, 525.39 249.97 M524.24 250.14 C412.98 249.16, 301.22 248.96, 0.03 250.3 M524.89 250.43 C344.7 251.52, 164.85 251.59, -0.23 250.13 M0.37 250.27 C-0.83 192.11, -3.46 134.48, -1.15 -0.99 M-0.17 249.72 C-1.3 191, -2.24 131.29, 0.68 0.81" stroke="#1e1e1e" stroke-width="1" fill="none"/></g><g stroke-linecap="round" transform="translate(10.6728515625 282.4825134277344) rotate(0 260.6605224609375 162.33507218744745)"><path d="M0 0 L521.32 0 L521.32 324.67 L0 324.67" stroke="none" stroke-width="0" fill="#a5d8ff"/><path d="M0 0 C157.1 0, 314.21 0, 521.32 0 M0 0 C141.41 0, 282.82 0, 521.32 0 M521.32 0 C521.32 99.54, 521.32 199.08, 521.32 324.67 M521.32 0 C521.32 123.91, 521.32 247.83, 521.32 324.67 M521.32 324.67 C316.45 324.67, 111.58 324.67, 0 324.67 M521.32 324.67 C399.15 324.67, 276.97 324.67, 0 324.67 M0 324.67 C0 242.74, 0 160.82, 0 0 M0 324.67 C0 247.95, 0 171.22, 0 0" stroke="#1e1e1e" stroke-width="1" fill="none"/></g><g transform="translate(21.04248046875 21.401275634765625) rotate(0 57.255859375 11.5)"><text x="0" y="0" font-family="Helvetica, Segoe UI Emoji" font-size="20px" fill="#1e1e1e" text-anchor="start" style="white-space: pre;" direction="ltr" dominant-baseline="text-before-edge">Method Area</text></g><g transform="translate(565.01025390625 24.435760498046875) rotate(0 25.009765625 11.5)"><text x="0" y="0" font-family="Helvetica, Segoe UI Emoji" font-size="20px" fill="#1e1e1e" text-anchor="start" style="white-space: pre;" direction="ltr" dominant-baseline="text-before-edge">Stack</text></g><g transform="translate(34.97412109375 297.1640930175781) rotate(0 23.90625 11.5)"><text x="0" y="0" font-family="Helvetica, Segoe UI Emoji" font-size="20px" fill="#1e1e1e" text-anchor="start" style="white-space: pre;" direction="ltr" dominant-baseline="text-before-edge">Heap</text></g><g stroke-linecap="round" transform="translate(269.10498046875 21.81658935546875) rotate(0 125.42407226562499 51.43408203124999)"><path d="M0 0 L250.85 0 L250.85 102.87 L0 102.87" stroke="none" stroke-width="0" fill="#96f2d7"/><path d="M0 0 C88.75 0, 177.51 0, 250.85 0 M0 0 C55.66 0, 111.32 0, 250.85 0 M250.85 0 C250.85 35.67, 250.85 71.34, 250.85 102.87 M250.85 0 C250.85 24.5, 250.85 48.99, 250.85 102.87 M250.85 102.87 C163.32 102.87, 75.79 102.87, 0 102.87 M250.85 102.87 C154.61 102.87, 58.37 102.87, 0 102.87 M0 102.87 C0 69.31, 0 35.76, 0 0 M0 102.87 C0 77.22, 0 51.57, 0 0" stroke="#1e1e1e" stroke-width="1" fill="none"/></g><g transform="translate(280.6905517578125 31.357269287109375) rotate(0 55.125 9.200000000000003)"><text x="0" y="0" font-family="Helvetica, Segoe UI Emoji" font-size="16px" fill="#1e1e1e" text-anchor="start" style="white-space: pre;" direction="ltr" dominant-baseline="text-before-edge">JVMCase.class</text></g><g stroke-linecap="round" transform="translate(269.1824951171875 144.63907623291016) rotate(0 125.42407226562499 50.61088562011719)"><path d="M0 0 L250.85 0 L250.85 101.22 L0 101.22" stroke="none" stroke-width="0" fill="#96f2d7"/><path d="M0 0 C83.63 0, 167.25 0, 250.85 0 M0 0 C71.69 0, 143.37 0, 250.85 0 M250.85 0 C250.85 21.13, 250.85 42.25, 250.85 101.22 M250.85 0 C250.85 33.26, 250.85 66.53, 250.85 101.22 M250.85 101.22 C191.24 101.22, 131.63 101.22, 0 101.22 M250.85 101.22 C167.55 101.22, 84.25 101.22, 0 101.22 M0 101.22 C0 65.52, 0 29.82, 0 0 M0 101.22 C0 66.12, 0 31.01, 0 0" stroke="#1e1e1e" stroke-width="1" fill="none"/></g><g transform="translate(284.8734130859375 157.05938720703125) rotate(0 48.02734375 9.200000000000003)"><text x="0" y="0" font-family="Helvetica, Segoe UI Emoji" font-size="16px" fill="#1e1e1e" text-anchor="start" style="white-space: pre;" direction="ltr" dominant-baseline="text-before-edge">Student.class</text></g><g transform="translate(417.0152587890625 30.582122802734375) rotate(0 36.90625 9.200000000000003)"><text x="0" y="0" font-family="Helvetica, Segoe UI Emoji" font-size="16px" fill="#1e1e1e" text-anchor="start" style="white-space: pre;" direction="ltr" dominant-baseline="text-before-edge">static area</text></g><g transform="translate(417.4888916015625 60.04638671875) rotate(0 22.66796875 9.200000000000003)"><text x="0" y="0" font-family="Helvetica, Segoe UI Emoji" font-size="16px" fill="#1e1e1e" text-anchor="start" style="white-space: pre;" direction="ltr" dominant-baseline="text-before-edge">main()</text></g><g transform="translate(418.1842041015625 88.31271362304688) rotate(0 20.890625 9.200000000000003)"><text x="0" y="0" font-family="Helvetica, Segoe UI Emoji" font-size="16px" fill="#1e1e1e" text-anchor="start" style="white-space: pre;" direction="ltr" dominant-baseline="text-before-edge">print()</text></g><g transform="translate(299.2379150390625 186.13397216796875) rotate(0 92.4921875 9.2)"><text x="0" y="0" font-family="Helvetica, Segoe UI Emoji" font-size="16px" fill="#1e1e1e" text-anchor="start" style="white-space: pre;" direction="ltr" dominant-baseline="text-before-edge">Field name and descriptor</text></g><g transform="translate(299.4376220703125 213.27935791015625) rotate(0 101.8359375 9.2)"><text x="0" y="0" font-family="Helvetica, Segoe UI Emoji" font-size="16px" fill="#1e1e1e" text-anchor="start" style="white-space: pre;" direction="ltr" dominant-baseline="text-before-edge">Method name and descriptor</text></g><g transform="translate(22.2904052734375 66.36503295898439) rotate(0 63.578125 9.200000000000003)"><text x="0" y="0" font-family="Helvetica, Segoe UI Emoji" font-size="16px" fill="#1e1e1e" text-anchor="start" style="white-space: pre;" direction="ltr" dominant-baseline="text-before-edge">MAN_SEX_TYPE</text></g><g stroke-linecap="round"><g transform="translate(163.370361328125 76.34191543617143) rotate(0 17.04345703125 -0.5816008660402332)"><path d="M1.37 1.21 C10.07 -1.42, 16.85 1.1, 36.01 -1.07 M-0.37 -0.24 C8.59 -1.17, 17.87 -1.04, 34.16 -0.7" stroke="#1e1e1e" stroke-width="2" fill="none"/></g><g transform="translate(163.370361328125 76.34191543617143) rotate(0 17.04345703125 -0.5816008660402332)"><path d="M32.93 -1.09 L22.24 4.47 L22.05 -5.51 L32.69 0.57" stroke="none" stroke-width="0" fill="#1e1e1e" fill-rule="evenodd"/><path d="M35.19 0.2 C31.2 0.31, 25.75 4.07, 21.9 5.47 M33.89 -0.88 C30.1 0.66, 26.55 2.63, 20.52 5.75 M20.36 4.21 C20.92 2.15, 21.62 -3.83, 21.59 -7.91 M20.25 5.14 C20.73 1.85, 20.08 -2.76, 20.65 -7.31 M20.1 -6.12 C25.8 -5.13, 27.67 -4.75, 33.56 0.49 M20.86 -6.64 C24.5 -4.66, 28.63 -3.41, 34.35 0.01 M34.16 -0.7 C34.16 -0.7, 34.16 -0.7, 34.16 -0.7 M34.16 -0.7 C34.16 -0.7, 34.16 -0.7, 34.16 -0.7" stroke="#1e1e1e" stroke-width="2" fill="none"/></g></g><mask/><g transform="translate(207.2919921875 67.76473999023438) rotate(0 21.2421875 9.200000000000003)"><text x="0" y="0" font-family="Helvetica, Segoe UI Emoji" font-size="16px" fill="#1e1e1e" text-anchor="start" style="white-space: pre;" direction="ltr" dominant-baseline="text-before-edge">"man"</text></g><g transform="translate(25.42822265625 113.50437622070314) rotate(0 63.578125 9.200000000000003)"><text x="0" y="0" font-family="Helvetica, Segoe UI Emoji" font-size="16px" fill="#1e1e1e" text-anchor="start" style="white-space: pre;" direction="ltr" dominant-baseline="text-before-edge">MAN_SEX_TYPE</text></g><g transform="translate(207.3857421875 115.04281616210938) rotate(0 12.453125 9.200000000000003)"><text x="0" y="0" font-family="Helvetica, Segoe UI Emoji" font-size="16px" fill="#1e1e1e" text-anchor="start" style="white-space: pre;" direction="ltr" dominant-baseline="text-before-edge">null</text></g><g stroke-linecap="round"><g transform="translate(162.601318359375 124.84703488425048) rotate(0 16.863037109375 -0.2978420951041514)"><path d="M1.9 1.92 C11.77 -0.61, 23.43 1.75, 32.99 -1.07 M-0.09 0.08 C8.79 0.12, 16.63 0.82, 33.65 -1.54" stroke="#1e1e1e" stroke-width="2" fill="none"/></g><g transform="translate(162.601318359375 124.84703488425048) rotate(0 16.863037109375 -0.2978420951041514)"><path d="M35.41 -3.02 L22.07 5.83 L17.98 -7.01 L35.53 0.32" stroke="none" stroke-width="0" fill="#1e1e1e" fill-rule="evenodd"/><path d="M35.07 -0.1 C29.24 0.56, 24.78 5.17, 20.25 5.85 M33.58 -1.48 C30.78 0.43, 27.25 2.97, 20.74 5.5 M19.54 7.11 C19.65 2.11, 20.34 -2.74, 19.04 -6.93 M20.37 6.18 C20.25 1.73, 19.92 -1.9, 19.21 -5.92 M18.51 -7.01 C26.28 -4.3, 31.84 -2.64, 34.01 -0.26 M19.25 -6.21 C23.71 -4.49, 27.17 -4.55, 33.84 -1.68 M33.65 -1.54 C33.65 -1.54, 33.65 -1.54, 33.65 -1.54 M33.65 -1.54 C33.65 -1.54, 33.65 -1.54, 33.65 -1.54" stroke="#1e1e1e" stroke-width="2" fill="none"/></g></g><mask/></svg>